HIERARCHY
ROOT hip
{
  OFFSET 7.8145 41.1671 20.687
  CHANNELS 6 Xposition Yposition Zposition Zrotation Xrotation Yrotation
  JOINT rButtock
  {
    OFFSET -4.19761 -0.599656 -0.299829
    CHANNELS 3 Zrotation Xrotation Yrotation
    JOINT rThigh
    {
      OFFSET 0 -1.49915 0
      CHANNELS 3 Zrotation Xrotation Yrotation
      JOINT rShin
      {
        OFFSET 0.699602 -17.6899 -1.09938
        CHANNELS 3 Zrotation Xrotation Yrotation
        JOINT rFoot
        {
          OFFSET -0.699602 -18.0897 -0.699602
          CHANNELS 3 Zrotation Xrotation Yrotation
          End Site
          {
            OFFSET 0 -2.09881 5.59681
          }
        }
      }
    }
  }
  JOINT lButtock
  {
    OFFSET 4.19761 -0.599656 -0.299829
    CHANNELS 3 Zrotation Xrotation Yrotation
    JOINT lThigh
    {
      OFFSET 0 -1.49914 0
      CHANNELS 3 Zrotation Xrotation Yrotation
      JOINT lShin
      {
        OFFSET -0.699602 -17.6899 -1.09937
        CHANNELS 3 Zrotation Xrotation Yrotation
        JOINT lFoot
        {
          OFFSET 0.699602 -18.0897 -0.699602
          CHANNELS 3 Zrotation Xrotation Yrotation
          End Site
          {
            OFFSET 0 -2.0988 5.59681
          }
        }
      }
    }
  }
  JOINT abdomen
  {
    OFFSET 0 6.09653 0.699602
    CHANNELS 3 Zrotation Xrotation Yrotation
    JOINT chest
    {
      OFFSET 0 2.49857 -0.699602
      CHANNELS 3 Zrotation Xrotation Yrotation
      JOINT rCollar
      {
        OFFSET -1.49915 11.2936 -1.69903
        CHANNELS 3 Zrotation Xrotation Yrotation
        JOINT rShldr
        {
          OFFSET -4.89721 -0.299829 0.799545
          CHANNELS 3 Zrotation Xrotation Yrotation
          JOINT rForeArm
          {
            OFFSET -12.4216 -1.19922 0.931564
            CHANNELS 3 Zrotation Xrotation Yrotation
            JOINT rHand
            {
              OFFSET -9.86568 0.0998477 3.66582
              CHANNELS 3 Zrotation Xrotation Yrotation
              JOINT rPinky1
              {
                OFFSET -3.29812 0.0999423 -0.399772
                CHANNELS 3 Zrotation Xrotation Yrotation
                JOINT rPinky2
                {
                  OFFSET -0.899492 -0.0999405 0
                  CHANNELS 3 Zrotation Xrotation Yrotation
                  End Site
                  {
                    OFFSET -0.999429 -0.0999421 0
                  }
                }
              }
              JOINT rRing1
              {
                OFFSET -3.39807 0.399775 0.299829
                CHANNELS 3 Zrotation Xrotation Yrotation
                JOINT rRing2
                {
                  OFFSET -1.29926 -0.199888 0.399772
                  CHANNELS 3 Zrotation Xrotation Yrotation
                  End Site
                  {
                    OFFSET -0.899487 -0.0999402 0.199886
                  }
                }
              }
              JOINT rIndex1
              {
                OFFSET -2.69847 0.399775 2.09881
                CHANNELS 3 Zrotation Xrotation Yrotation
                JOINT rIndex2
                {
                  OFFSET -1.33823 -0.200883 0.6843
                  CHANNELS 3 Zrotation Xrotation Yrotation
                  End Site
                  {
                    OFFSET -0.760569 0.00099747 0.415074
                  }
                }
              }
              JOINT rMid1
              {
                OFFSET -2.99829 0.499717 1.09937
                CHANNELS 3 Zrotation Xrotation Yrotation
                JOINT rMid2
                {
                  OFFSET -1.45827 -0.0999391 0.600149
                  CHANNELS 3 Zrotation Xrotation Yrotation
                  End Site
                  {
                    OFFSET -1.0403 -0.0999474 0.399282
                  }
                }
              }
              JOINT rThumb1
              {
                OFFSET -0.399773 -0.39977 1.19932
                CHANNELS 3 Zrotation Xrotation Yrotation
                JOINT rThumb2
                {
                  OFFSET -0.998132 0 1.47145
                  CHANNELS 3 Zrotation Xrotation Yrotation
                  End Site
                  {
                    OFFSET -0.977841 -0.278837 0.829828
                  }
                }
              }
            }
          }
        }
      }
      JOINT lCollar
      {
        OFFSET 1.49915 11.2936 -1.69903
        CHANNELS 3 Zrotation Xrotation Yrotation
        JOINT lShldr
        {
          OFFSET 4.89721 -0.299833 0.799545
          CHANNELS 3 Zrotation Xrotation Yrotation
          JOINT lForeArm
          {
            OFFSET 12.4216 -1.19922 0.931564
            CHANNELS 3 Zrotation Xrotation Yrotation
            JOINT lHand
            {
              OFFSET 9.86568 0.0998482 3.66582
              CHANNELS 3 Zrotation Xrotation Yrotation
              JOINT lMid1
              {
                OFFSET 2.99829 0.499714 1.09937
                CHANNELS 3 Zrotation Xrotation Yrotation
                JOINT lMid2
                {
                  OFFSET 1.45827 -0.0999388 0.600149
                  CHANNELS 3 Zrotation Xrotation Yrotation
                  End Site
                  {
                    OFFSET 1.04031 -0.0999473 0.399282
                  }
                }
              }
              JOINT lPinky1
              {
                OFFSET 3.29812 0.0999421 -0.399772
                CHANNELS 3 Zrotation Xrotation Yrotation
                JOINT lPinky2
                {
                  OFFSET 0.899488 -0.0999427 0
                  CHANNELS 3 Zrotation Xrotation Yrotation
                  End Site
                  {
                    OFFSET 0.999427 -0.0999418 0
                  }
                }
              }
              JOINT lIndex1
              {
                OFFSET 2.69846 0.399775 2.09881
                CHANNELS 3 Zrotation Xrotation Yrotation
                JOINT lIndex2
                {
                  OFFSET 1.33823 -0.200884 0.6843
                  CHANNELS 3 Zrotation Xrotation Yrotation
                  End Site
                  {
                    OFFSET 0.760567 0.00099574 0.415074
                  }
                }
              }
              JOINT lThumb1
              {
                OFFSET 0.399772 -0.399773 1.19932
                CHANNELS 3 Zrotation Xrotation Yrotation
                JOINT lThumb2
                {
                  OFFSET 0.99813 0 1.47145
                  CHANNELS 3 Zrotation Xrotation Yrotation
                  End Site
                  {
                    OFFSET 0.97784 -0.27884 0.829828
                  }
                }
              }
              JOINT lRing1
              {
                OFFSET 3.39806 0.399773 0.299829
                CHANNELS 3 Zrotation Xrotation Yrotation
                JOINT lRing2
                {
                  OFFSET 1.29926 -0.199886 0.399772
                  CHANNELS 3 Zrotation Xrotation Yrotation
                  End Site
                  {
                    OFFSET 0.899489 -0.0999425 0.199886
                  }
                }
              }
            }
          }
        }
      }
      JOINT neck
      {
        OFFSET 0 12.4929 -0.499715
        CHANNELS 3 Zrotation Xrotation Yrotation
        JOINT head
        {
          OFFSET 0 3.59795 0.299829
          CHANNELS 3 Zrotation Xrotation Yrotation
          JOINT rightEye
          {
            OFFSET -1.19932 3.69789 3.19818
            CHANNELS 3 Zrotation Xrotation Yrotation
            End Site
            {
              OFFSET 0 0 0
            }
          }
          JOINT leftEye
          {
            OFFSET 1.19932 3.69789 3.19818
            CHANNELS 3 Zrotation Xrotation Yrotation
            End Site
            {
              OFFSET 0 0 0
            }
          }
        }
      }
    }
  }
}
MOTION
Frames:	4
Frame Time:	0.0333333
6.94817 56.6949 94.0455 -2.46023 40.9804 0.153716 -0.00975517 -0.00969887 -0.00983547 -27.8496 17.0281 25.3939 152.349 87.4112 -173.006 1.75792 13.5917 -0.802387 -0.00975517 -0.00983547 -0.00969887 27.0592 -15.8736 39.137 -0.0550624 7.86003 -1.12916 -2.31453 19.167 1.22155 -0.00975517 -0.00975351 -0.00975351 -1.87758 8.10913 18.9669 -9.07887 0.591826 -25.3548 9.18002 -53.1573 34.8264 -1.72527 -0.446375 79.6788 0.230764 0.0802224 0.0878809 -0.00953421 -0.0539345 -0.0110762 0.629425 -0.00953167 -0.000952459 -0.00767897 -0.0535262 -0.0111902 2.4273 -0.497514 4.43291 -0.00543757 -0.0528611 -0.011 8.61207 -0.00171995 -1.79828 -0.00604407 -0.053987 -0.0103929 -0.219775 0.404223 1.44943 -0.0807453 53.9427 17.2594 -9.39785 -7.91692 -0.663799 10.0688 -0.605863 1.31342 -23.8326 -31.2177 23.8255 -2.62071 3.61302 -27.8758 1.41241 -0.560089 -5.39409 -0.0134212 -0.0553256 -0.00918207 0.204762 0.414793 -1.45043 -0.00974195 -0.0566359 -0.00839407 -0.630083 -0.00995829 0.00100904 -0.0140574 -0.0557317 -0.00841043 -8.62158 -0.0231749 1.79819 -0.155265 53.9773 -17.0416 9.41156 -7.94154 0.625637 -0.0117781 -0.0566143 -0.00819099 -2.42863 -0.502347 -4.43241 -0.852441 -8.25274 -18.8921 -8.18324 0.537575 29.0632 0 0 0 0 0 0 
7.0897 55.8307 96.6016 -3.65225 43.4004 -0.443102 -0.00975517 -0.00969887 -0.00983547 -23.6331 18.5867 17.1513 165.823 86.0177 170.242 1.62653 13.7014 -0.787525 -0.00975517 -0.00983547 -0.00969887 19.2911 -16.2951 34.1362 -0.0605489 8.54082 -1.24905 -2.82034 19.2252 1.32992 -0.00975517 -0.00975351 -0.00975351 -0.294406 5.8004 21.1293 -4.67562 -0.289496 -16.0136 4.99777 -30.6353 31.85 1.12517 -0.418793 85.8317 -0.847814 -0.322274 -0.348564 -0.00953421 -0.0539345 -0.0110762 0.629425 -0.00953167 -0.000952459 -0.00767897 -0.0535262 -0.0111902 2.4273 -0.497514 4.43291 -0.00543757 -0.0528611 -0.011 8.61207 -0.00171995 -1.79828 -0.00604407 -0.053987 -0.0103929 -0.219775 0.404223 1.44943 -0.0807453 53.9427 17.2594 -9.39785 -7.91692 -0.663799 3.25508 -0.0161781 9.11974 -4.8508 -30.1112 16.3132 -3.18279 2.9217 -30.2115 1.70719 -0.682689 -4.97215 -0.0134212 -0.0553256 -0.00918207 0.204762 0.414793 -1.45043 -0.00974195 -0.0566359 -0.00839407 -0.630083 -0.00995829 0.00100904 -0.0140574 -0.0557317 -0.00841043 -8.6216 -0.0231749 1.79819 -0.155265 53.9773 -17.0416 9.41156 -7.94154 0.625637 -0.0117781 -0.0566143 -0.00819099 -2.42863 -0.502347 -4.43241 -1.81273 -5.49111 -21.1998 -9.22918 0.720032 29.9874 0 0 0 0 0 0 
7.28935 54.6101 99.3497 -5.95347 45.4103 0.539553 -0.00975517 -0.00969887 -0.00983547 -19.4684 19.3262 7.78989 16.946 86.4009 -45.0229 1.35818 14.2928 -0.775052 -0.00975517 -0.00983547 -0.00969887 11.6972 -14.9024 28.9069 -0.0688726 9.52404 -1.36273 -3.17953 19.4598 1.42028 -0.00975517 -0.00975351 -0.00975351 1.24152 4.76235 19.8147 2.00548 -0.391644 -6.65458 5.56653 -13.5777 27.7492 2.66989 0.0639664 85.1948 -1.45644 -0.547648 -0.0572229 -0.00953421 -0.0539345 -0.0110762 0.629425 -0.00953167 -0.000952459 -0.00767897 -0.0535262 -0.0111902 2.4273 -0.497514 4.43291 -0.00543757 -0.0528611 -0.011 8.61207 -0.00171995 -1.79828 -0.00604407 -0.053987 -0.0103929 -0.219775 0.404223 1.44943 -0.0807453 53.9427 17.2594 -9.39785 -7.91692 -0.663799 -0.297883 -0.179936 19.4446 8.06275 -35.0818 4.27016 -2.08392 3.8152 -30.3259 1.22993 -0.480987 -4.75173 -0.0134212 -0.0553256 -0.00918207 0.204762 0.414793 -1.45043 -0.00974195 -0.0566359 -0.00839407 -0.630083 -0.00995829 0.00100904 -0.0140574 -0.0557317 -0.00841043 -8.62163 -0.0231749 1.79819 -0.155265 53.9773 -17.0416 9.41156 -7.94154 0.625637 -0.0117781 -0.0566143 -0.00819099 -2.42863 -0.502347 -4.43241 -2.77933 -4.03215 -19.9645 -9.95606 2.06158 27.042 0 0 0 0 0 0 
7.49285 52.947 102.216 -8.92332 47.5298 3.451 -0.00975517 -0.00969887 -0.00983547 -15.7685 19.5461 -1.72048 4.79429 72.9053 -35.9151 0.714084 16.0195 -0.747807 -0.00975517 -0.00983547 -0.00969887 4.94963 -11.9998 23.2683 -0.0746724 10.2854 -1.4255 -3.29346 19.7048 1.46094 -0.00975517 -0.00975351 -0.00975351 3.00419 4.22322 18.9582 9.22922 0.281593 -1.30863 9.94794 -7.2907 20.155 3.61225 0.457626 81.1625 -1.80819 -0.68165 0.380884 -0.00953421 -0.0539345 -0.0110762 0.629425 -0.00953167 -0.000952459 -0.00767897 -0.0535262 -0.0111902 2.4273 -0.497514 4.43291 -0.00543757 -0.0528611 -0.011 8.61207 -0.00171995 -1.79828 -0.00604407 -0.053987 -0.0103929 -0.219775 0.404223 1.44943 -0.0807453 53.9427 17.2594 -9.39785 -7.91692 -0.663799 0.361429 -0.161375 23.2422 12.9539 -44.5251 -5.99352 0.254808 5.56867 -31.3364 0.159721 -0.0337681 -4.56803 -0.0134212 -0.0553256 -0.00918207 0.204762 0.414793 -1.45043 -0.00974195 -0.0566359 -0.00839407 -0.630083 -0.00995829 0.00100904 -0.0140574 -0.0557317 -0.00841043 -8.62166 -0.0231749 1.79819 -0.155265 53.9773 -17.0416 9.41156 -7.94154 0.625637 -0.0117781 -0.0566143 -0.00819099 -2.42863 -0.502347 -4.43241 -4.20998 -2.98617 -19.1806 -10.1391 4.42794 24.7636 0 0 0 0 0 0 
